<?xml version="1.0" standalone="no"?><!DOCTYPE svg PUBLIC "-//W3C//DTD SVG 1.1//EN" "http://www.w3.org/Graphics/SVG/1.1/DTD/svg11.dtd"><svg t="1668825379454" class="icon" viewBox="0 0 1024 1024" version="1.1" xmlns="http://www.w3.org/2000/svg" p-id="1704" xmlns:xlink="http://www.w3.org/1999/xlink" width="200" height="200"><path d="M672.89900278 678.61985564a53.63300132 53.63300132 0 1 0 0-107.26600149 53.63300132 53.63300132 0 0 0 0 107.26600149zM351.10099722 678.61985564a53.63300132 53.63300132 0 1 0 0-107.26600149 53.63300132 53.63300132 0 0 0 0 107.26600149z" fill="#ffffff" p-id="1705"></path><path d="M675.15158871 281.77140554a429.06400587 429.06400587 0 0 0-164.65331304-32.21555576C273.7622106 250.37822248 82.93599413 445.95989802 82.93599413 683.66135802v102.22449909h858.12801174v-107.26600147a429.06400587 429.06400587 0 0 0-265.91241716-396.8484501zM510.21223348 178.04518211A500.57467352 500.57467352 0 0 1 1012.57467352 678.61985564v107.26600147a71.51066765 71.51066765 0 0 1-71.51066765 71.51066765H82.93599413a71.51066765 71.51066765 0 0 1-71.51066765-71.51066765V683.62560304C11.42532648 407.55866998 233.10839547 179.01057591 510.21223348 178.04518211z" fill="#ffffff" p-id="1706"></path><path d="M57.6569722 152.7661602a35.75533383 35.75533383 0 0 1 50.55804269 0l138.87371672 138.87371676a35.75533383 35.75533383 0 1 1-50.55804268 50.55804264L57.6569722 203.32420289a35.75533383 35.75533383 0 0 1 0-50.55804269zM966.3430278 152.7661602a35.75533383 35.75533383 0 0 1 0 50.55804269l-138.08710018 138.08709898a35.75533383 35.75533383 0 0 1-50.55804151-50.5580415l138.087099-138.08710017a35.75533383 35.75533383 0 0 1 50.55804269 0z" fill="#ffffff" p-id="1707"></path></svg>